<?xml version="1.0" standalone="no"?>
<!DOCTYPE svg PUBLIC "-//W3C//DTD SVG 20010904//EN"
 "http://www.w3.org/TR/2001/REC-SVG-20010904/DTD/svg10.dtd">
<svg version="1.0" xmlns="http://www.w3.org/2000/svg"
 width="402.000000pt" height="417.000000pt" viewBox="0 0 402.000000 417.000000"
 preserveAspectRatio="xMidYMid meet">

<g transform="translate(0.000000,417.000000) scale(0.100000,-0.100000)"
fill="#000000" stroke="none">
<path d="M1845 3930 c-184 -15 -492 -98 -635 -170 -190 -96 -370 -231 -532
-398 -235 -245 -394 -546 -470 -893 -20 -92 -22 -132 -23 -349 0 -278 12 -357
84 -571 47 -138 51 -148 120 -274 75 -137 120 -204 218 -316 358 -415 913
-642 1465 -600 455 35 839 212 1163 536 304 303 476 658 526 1080 17 141 6
412 -21 540 -124 583 -492 1039 -1030 1275 -110 48 -305 104 -435 125 -120 19
-307 25 -430 15z m326 -100 c393 -40 731 -201 1015 -485 215 -214 333 -410
415 -684 54 -185 71 -300 71 -486 0 -185 -7 -249 -52 -427 -81 -319 -249 -599
-508 -842 l-62 -59 7 34 c5 19 8 84 7 144 -1 124 -21 193 -78 268 -78 103
-249 201 -543 313 -84 32 -151 59 -149 61 2 2 42 0 90 -5 59 -5 92 -5 100 2
10 8 11 32 5 96 -10 117 -11 558 -1 564 18 11 141 -73 217 -149 45 -44 103
-115 130 -157 40 -65 53 -78 74 -78 53 0 53 1 36 206 -9 104 -18 207 -21 229
l-4 40 -153 0 c-155 1 -267 17 -267 38 0 7 9 26 20 44 19 32 38 40 135 60 36
8 40 12 40 38 l0 29 -385 0 -385 0 -3 -23 c-5 -33 5 -39 87 -51 81 -11 108
-22 133 -54 26 -32 23 -36 -34 -36 -73 0 -220 -25 -298 -51 -201 -65 -333
-168 -387 -300 -24 -58 -23 -224 1 -288 9 -24 16 -45 16 -48 0 -13 -71 38
-131 95 -197 185 -298 436 -316 787 -18 364 88 708 283 915 118 125 240 186
389 197 281 20 488 -124 654 -454 30 -61 46 -83 61 -83 32 0 37 25 24 138 -7
59 -15 154 -18 212 -4 58 -9 129 -12 158 l-5 52 -54 -6 c-61 -7 -180 8 -275
36 l-65 19 46 0 c26 1 93 -4 150 -9z m-1457 -606 c-111 -251 -121 -647 -23
-939 130 -389 449 -647 853 -690 52 -6 84 -16 127 -42 81 -47 163 -83 399
-174 473 -184 602 -286 604 -479 1 -93 -25 -159 -90 -229 -58 -63 -135 -109
-229 -137 -84 -26 -294 -26 -385 0 -198 55 -399 207 -531 402 -45 67 -53 74
-83 74 -55 0 -59 -15 -37 -119 18 -81 78 -296 97 -344 6 -16 -1 -15 -60 7
-254 96 -497 263 -672 464 -199 227 -321 482 -386 805 -32 158 -32 443 1 597
52 248 134 450 265 649 55 82 159 211 171 211 2 0 -7 -25 -21 -56z m1464
-1095 l-3 -251 -41 -37 c-23 -20 -57 -45 -76 -55 l-35 -19 -59 38 c-83 52
-123 92 -150 150 -59 124 3 280 145 363 46 27 155 60 199 61 l24 1 -4 -251z"/>
</g>
</svg>
